<?xml version="1.0" encoding="utf-8"?>
<!-- Generator: Adobe Illustrator 23.1.1, SVG Export Plug-In . SVG Version: 6.00 Build 0)  -->
<svg version="1.1" id="Layer_1" xmlns="http://www.w3.org/2000/svg" xmlns:xlink="http://www.w3.org/1999/xlink" x="0px" y="0px"
	 viewBox="0 0 260 377" style="enable-background:new 0 0 260 377;" xml:space="preserve">
<style type="text/css">
	.st0{stroke:#000000;stroke-width:9;stroke-miterlimit:10;}
	.st1{font-family:'BodoniSvtyTwoSCITCTT-Book';}
	.st2{font-size:296.3096px;}
	.st3{fill:#FFFFFF;stroke:#FFFFFF;stroke-width:10;stroke-miterlimit:10;}
	.st4{stroke:#000000;stroke-width:6;stroke-miterlimit:10;}
	.st5{fill:#FFFFFF;}
</style>
<text transform="matrix(1 0 0 1 84.7871 268.3701)" class="st0 st1 st2">5</text>
<text transform="matrix(1 0 0 1 74.7871 259.3701)" class="st3 st1 st2">5</text>
<text transform="matrix(1 0 0 1 71.7311 252.506)" class="st4 st1 st2">5</text>
<g>
	<polygon class="st5" points="106.1,114 112.7,134.4 151.6,117.3 159.5,104.1 133.2,94.9 	"/>
	<g>
		<path d="M165.6,92.3c-3.3-7.6-12.5-11.7-24.7-12.2c2.5,5,5.4,10.4,8.8,16.5l0.3,0.6l0,0.6c0,0.7-0.9,16.2-34.4,31
			c-1.1,0.5-2.5,0-3-1.2c0-0.1,0-0.1,0-0.2c-0.4-1.1,0.1-2.3,1.2-2.8c0,0,0,0,0,0c1.5-0.7,2.9-1.3,4.3-2
			c23.1-11.2,26.8-22,27.3-24.5c-3.8-6.7-6.9-12.6-9.6-18c-11.7-23.9-13.4-36.3-14.4-43.6c-0.9-6.5-1-7.5-6.7-9.7
			c-10.9-4.2-28.1,0.8-37.1,4c-1.5,0.5-2.8,1-3.7,1.4c-1.3,0.5-2.1,0.8-2.2,0.9l0,0C62.1,37.1,43.6,46.4,39,58.3
			c-5.7,14.6,6.8,6.1,25.6,54.5c-8.7,9.8-12.4,19.9-8.9,27.8c6.6,15.1,36.6,16.5,67,3.1C153.1,130.4,172.3,107.3,165.6,92.3z
			 M46.8,68.1c0-1.2,1.1-2.2,2.3-2.2c0.1,0,2.2,0,5.7-0.3c6.3-0.5,17.1-2.2,28.8-7c1.8-0.7,3.6-1.6,5.4-2.4
			c7-3.5,14.1-8.2,20.4-14.6c1.2-1.2,2.4-2.4,3.5-3.8c0.8-1,2.2-1.1,3.2-0.2c0.9,0.8,1.1,2.2,0.2,3.2c-7.8,9-16.7,15.3-25.5,19.7
			c-1.3,0.6-2.5,1.2-3.8,1.8c-0.5,0.2-1,0.4-1.6,0.6c-18.7,7.8-35.4,7.6-36.5,7.6C47.7,70.4,46.8,69.4,46.8,68.1z"/>
	</g>
</g>
</svg>
